<?xml version="1.0" encoding="UTF-8"?>
<svg id="Layer_1" xmlns="http://www.w3.org/2000/svg" version="1.1" viewBox="0 0 1024 1024">
  <!-- Generator: Adobe Illustrator 29.5.1, SVG Export Plug-In . SVG Version: 2.1.0 Build 141)  -->
  <defs>
    <style>
      .st0 {
        fill: #f7bd21;
      }

      .st1 {
        fill: #d06e0a;
      }
    </style>
  </defs>
  <path class="st1" d="M396,130l-9.53,7.97c-16.29,15.52-18.69,26.29-19.1,48.36-.32,17.66.44,39.5,1.58,57.21.15,2.29,1.95,16.48,3.55,16.47,3.84-2.7,6.6-6.61,10.56-9.44,27.66-19.81,80.18-21.82,113.39-22.61,36.09-.86,109.37-.29,139.86,19.22,2.72,1.74,12.94,12.28,14.67,10.82l4.05-53.46c1.69-27.33-.55-56.75-26.04-72.54,11.97,4.56,23.47,10.16,33.89,17.61,20.97,15,31.53,36.04,44.28,57.72,29.18,49.61,57.87,101.87,83.68,153.32,7.83,15.6,24.45,44.02,23.18,60.9s-31.85,34.53-43.01,47.99c-25.53,30.8-20.82,75.01.97,106.47-48.22-23.28-78.19-21.21-126.33-1.83-49.87,20.08-116.11,2.93-159.59-25.76-37.86-24.98-64.49-60.69-87.1-99.42-.39-.27-1.98,1.32-1.98,1.5v37c0,7.34-6.03,23.25-11.46,28.54-8.44,8.23-34.1,17.97-45.87,23.13-30.69,13.48-63.6,25.29-93.68,39.82,33.2-39.26,30.35-89.14-7.99-123.51-10.19-9.14-28.78-18.59-30.05-33.94-1.62-19.6,25.52-66.51,35.52-85.57,18.61-35.49,38.53-71.81,58.35-106.65,26.75-47.03,41.49-77.55,94.17-99.33ZM378.99,364c9.12,46.85,20.65,100,73,114.51,26.54,7.35,87.7,7.37,113.28-2.75,59.07-23.36,78.47-136.64,74.78-192.3-.23-3.44-1.35-12.64-2.51-15.49-2.89-7.09-24.05-15.47-31.51-17.49-38.85-10.49-79.74-7.57-119.47-6.44-32.75.93-66.46-1.56-95.46,16.54-7.76,4.84-10.1,8.53-15.99,14.78-.69.73-1.59,1.09-2.07.64-.73-.69-5.18-16.17-6.52-18.99-6.11-12.95-20.78-15.33-28.69-2.7-15.01,23.97-3.68,68.67,9.68,91.71,6.18,10.67,17.82,27.51,31.51,17.98ZM668.09,343.91c4.63,3.22,14.14-13.13,15.76-16.55,7.72-16.3,14.03-56.12-2.36-68.35-4.7-3.51-18.42-4.53-17.44,1.38.58,3.49,12.41,1.41,17.17,8.9,7.6,11.97,3.34,41.09-2.73,53.7-2.21,4.6-10.35,13.52-11.09,16-.36,1.21,0,4.44.7,4.93Z"/>
  <path class="st0" d="M825,709c2.3,18.05,3.8,36.29,6.14,54.36,6.9,53.23,15.37,106.3,20.86,159.65-6.99.02-14.02-.04-21,0-1.2-20.99,1-47.66-8.81-66.69-9.36-18.15-29.25-31.03-49.64-32.36-37.22,2.11-77.2-2.64-114.09,0-17.89,1.28-32.26,8.67-43.44,22.56-17.75,22.05-10.64,50.26-12.02,76.48-15.99,0-32.01,0-48,0l1.01-135.01c-29.67.15-59.4-.58-89.01,1l1.01,134.01c-15.99,0-32.01,0-48,0-1.13-18.82,2.64-39.57-2.74-57.76-6.55-22.13-27.01-38.49-49.77-41.23-41.34,5.05-119.9-12.48-152.95,15.01-25.67,21.35-19.72,54.24-22.53,83.97-7.32-.04-14.68.04-22,0,10.23-71.18,19.28-142.59,28-213.99h627Z"/>
  <path class="st0" d="M772,576c15.74,7.6,35.34,21.61,40.3,39.2,3.43,12.16,3.99,28.03,5.7,40.8l-614-1c4.86-38.17,3.8-57.54,42-76,30.07-14.53,62.99-26.35,93.68-39.82,11.76-5.16,37.43-14.9,45.87-23.13,5.43-5.3,11.46-21.21,11.46-28.54v-37c0-.18,1.59-1.77,1.98-1.5,22.62,38.72,49.24,74.44,87.1,99.42,43.48,28.69,109.72,45.84,159.59,25.76,48.14-19.38,78.11-21.46,126.33,1.83Z"/>
  <path class="st1" d="M818,656c2.37,17.66,4.75,35.34,7,53H198c2.19-17.96,3.72-36.05,6-54l614,1Z"/>
  <path class="st0" d="M629,132c25.49,15.79,27.73,45.22,26.04,72.54l-4.05,53.46c-1.73,1.46-11.95-9.08-14.67-10.82-30.49-19.51-103.77-20.08-139.86-19.22-33.21.79-85.73,2.8-113.39,22.61-3.96,2.83-6.72,6.74-10.56,9.44-1.6.01-3.4-14.18-3.55-16.47-1.14-17.71-1.9-39.55-1.58-57.21.41-22.06,2.81-32.84,19.1-48.36l9.53-7.97c58.68-24.25,126.82-28.3,189.01-13.51,13.23,3.14,32.56,8.44,43.99,15.51Z"/>
  <path class="st0" d="M815,923c-17.32.07-34.68-.02-52,0l-1.06-47.44c-1.88-9.59-13.53-7.58-14.88,1-.64,4.03-.9,12.34-1.1,16.9-.44,9.8.41,19.74.04,29.54-20.32.02-40.68,0-61,0l-.06-47.44c-2.65-10.96-14.51-5.88-15.88,3-2.03,13.14,1.37,30.79-.06,44.44-16.65,0-33.35,0-50,0,1.84-18.69-4.31-43.07,4.46-60.04,7.94-15.36,22.22-21.96,38.99-23.01,36.5-2.27,75.33,1.82,112.08.01,31.47,5.1,39.27,27.98,40.51,56.49.38,8.81-.37,17.74-.04,26.54Z"/>
  <path class="st0" d="M404,923c-17.32,0-34.68,0-52,0-1.44-13.64,1.97-31.3-.06-44.44-1.55-10.02-14.34-12.95-15.88-3-1.44,9.32.4,22.95-.02,32.98-.19,4.61-1.87,9.52-1.04,14.46-19.99,0-40.01.01-60,0-.41-10.46.54-21.08.04-31.54-.19-4.01-.53-11.28-1.1-14.9-1.3-8.35-13.47-9.66-14.89-1l-1.06,47.44c-16.65-.01-33.35.03-50,0,3.51-26.52-6.67-57.34,20.08-74.42,13.96-8.91,23.13-6.82,38.46-7.54,29.15-1.37,70.46-3.88,98.95-1.03,16.58,1.66,33,15.89,37.02,31.98s.2,34.89,1.49,51.01Z"/>
  <path class="st1" d="M468,923l-1.01-134.01c29.61-1.58,59.34-.85,89.01-1l-1.01,135.01c-28.98,0-58.02,0-87,0Z"/>
  <path class="st1" d="M420,923c-5.32,0-10.68,0-16,0-1.29-16.11,2.39-35.48-1.49-51.01s-20.44-30.33-37.02-31.98c-28.49-2.84-69.8-.34-98.95,1.03-15.33.72-24.5-1.37-38.46,7.54-26.75,17.08-16.57,47.9-20.08,74.42-5.32-.01-10.68.03-16,0,2.81-29.73-3.14-62.62,22.53-83.97,33.05-27.49,111.62-9.96,152.95-15.01,22.76,2.74,43.23,19.1,49.77,41.23,5.38,18.18,1.62,38.94,2.74,57.76Z"/>
  <path class="st1" d="M831,923c-5.32.03-10.68-.02-16,0-.32-8.81.42-17.73.04-26.54-1.24-28.52-9.03-51.39-40.51-56.49-36.75,1.81-75.58-2.28-112.08-.01-16.78,1.04-31.05,7.65-38.99,23.01-8.77,16.97-2.62,41.35-4.46,60.04-5.32,0-10.68,0-16,0,1.38-26.22-5.73-54.43,12.02-76.48,11.18-13.89,25.55-21.28,43.44-22.56,36.89-2.65,76.87,2.1,114.09,0,20.39,1.33,40.28,14.21,49.64,32.36,9.82,19.03,7.61,45.69,8.81,66.69Z"/>
  <path class="st1" d="M763,923c-5.65,0-11.35,0-17,0,.36-9.8-.48-19.74-.04-29.54.2-4.56.46-12.87,1.1-16.9,1.36-8.58,13-10.59,14.88-1l1.06,47.44Z"/>
  <path class="st1" d="M275,923c-5.65,0-11.35,0-17,0l1.06-47.44c1.41-8.66,13.58-7.35,14.89,1,.57,3.62.91,10.89,1.1,14.9.49,10.46-.45,21.08-.04,31.54Z"/>
  <path class="st1" d="M352,923c-5.65,0-11.35,0-17,0-.83-4.94.85-9.85,1.04-14.46.42-10.03-1.42-23.66.02-32.98,1.54-9.94,14.32-7.02,15.88,3,2.03,13.13-1.38,30.8.06,44.44Z"/>
  <path class="st1" d="M685,923c-5.32,0-10.68,0-16,0,1.44-13.65-1.96-31.29.06-44.44,1.37-8.89,13.22-13.96,15.88-3l.06,47.44Z"/>
  <path class="st0" d="M378.99,364c-13.69,9.53-25.33-7.32-31.51-17.98-13.36-23.05-24.69-67.74-9.68-91.71,7.91-12.63,22.58-10.25,28.69,2.7,1.33,2.83,5.79,18.31,6.52,18.99.48.45,1.38.09,2.07-.64,5.9-6.25,8.23-9.94,15.99-14.78,29.01-18.1,62.72-15.61,95.46-16.54,39.73-1.12,80.62-4.05,119.47,6.44,7.46,2.01,28.63,10.39,31.51,17.49,1.16,2.85,2.28,12.04,2.51,15.49,3.7,55.67-15.71,168.94-74.78,192.3-25.58,10.12-86.74,10.1-113.28,2.75-52.35-14.51-63.88-67.66-73-114.51ZM369.99,336c1.28-9.82.8-19.61,1.02-29.49.12-5.34,1.98-10.85.76-16.78-.86-4.21-7.67-14.22-11.27-16.73-6.4-4.47-18.75-4.59-18.54,5.45.23,10.91,3.34,7.76,10.07,10.01,7.86,2.63-.28,9.09-1.49,11.59-6.55,13.53,6.84,31.21,19.44,35.95ZM403,300h20.5c.63,0,8.95,5,11.22,5.78,7.79,2.66,13.34,2.74,21.29.73,3.54-.9,9.12-4.26,11.59-4.5,8.78-.88,10.38,12.75,17.6-3.31,2.48-5.52,5.02-19.19.32-23.7-1.6-1.54-13.21-3.45-16.15-3.85-24.9-3.36-61.34-2.13-66.36,28.86ZM612,300c-2.14-29.56-34.18-31.26-57.49-29.99-11.79.64-28.98,2.13-35.38,13.62-3.78,6.78-1.15,11.51-1.09,17.83.14,14.2.04,28.25,1.09,42.41,5.52.49,11.64,4.83,9.14,10.84-3.51,8.43-23.15,7.74-30.75,7.27-6.06-.37-19.33-5.86-20.51,5.61-1.27,12.29,14.44,8.17,20.25,9.65,5.07,1.29,6.74,8.02,16.2,7.79,7.74-3.12,25.33-5.6,30.55-11.52,8.09-9.16-3.42-21.5-6.29-30.73-4.16-13.37-6.2-44.89,12.27-47.77-1.21,6.47,1.19,8.46,7.03,10.47,20.13,6.95,25.54-7.09,36.48-6.55,1.3.06,2.62,1.07,3,1.07h15.5ZM560.87,413.87c2.66-4.24-3.95-7.95-7.16-9.08-11.47-4.05-27.15-3.68-39.25-3.83-16.63-.21-36.47-.84-52.16,5.84-2.71,1.16-5.37,2.37-5.4,5.69-.05,6.42,9.48,2.59,13.55,2.46,27.72-.85,57.82,2.05,85.09.09,1.15-.08,4.9-.49,5.32-1.17ZM538,429h-53.5c-2.78,0-1.56,7.15,1.52,9.47,6.34,4.78,16.44,1.73,23.43,1.48,9.69-.34,28.74,3.22,28.54-10.96Z"/>
  <path class="st0" d="M668.09,343.91c-.7-.49-1.07-3.72-.7-4.93.74-2.48,8.88-11.39,11.09-16,6.07-12.61,10.33-41.73,2.73-53.7-4.76-7.49-16.59-5.4-17.17-8.9-.98-5.91,12.74-4.89,17.44-1.38,16.39,12.23,10.08,52.05,2.36,68.35-1.62,3.42-11.13,19.77-15.76,16.55Z"/>
  <path class="st1" d="M612,300h-15.5c-.38,0-1.7-1.01-3-1.07-10.93-.53-16.35,13.5-36.48,6.55-5.84-2.01-8.24-4-7.03-10.47-18.47,2.88-16.44,34.4-12.27,47.77,2.87,9.23,14.38,21.57,6.29,30.73-5.22,5.92-22.82,8.4-30.55,11.52-9.46.23-11.14-6.49-16.2-7.79-5.81-1.49-21.52,2.64-20.25-9.65,1.18-11.47,14.45-5.98,20.51-5.61,7.6.47,27.24,1.16,30.75-7.27,2.5-6-3.62-10.35-9.14-10.84-1.05-14.16-.95-28.21-1.09-42.41-.06-6.32-2.68-11.04,1.09-17.83,6.4-11.49,23.59-12.98,35.38-13.62,23.31-1.27,55.35.43,57.49,29.99Z"/>
  <path class="st1" d="M403,300c5.02-30.99,41.46-32.21,66.36-28.86,2.94.4,14.55,2.31,16.15,3.85,4.71,4.51,2.17,18.18-.32,23.7-7.22,16.06-8.81,2.43-17.6,3.31-2.47.25-8.05,3.61-11.59,4.5-7.95,2.01-13.5,1.94-21.29-.73-2.27-.78-10.59-5.78-11.22-5.78h-20.5Z"/>
  <path class="st1" d="M560.87,413.87c-.43.68-4.17,1.09-5.32,1.17-27.27,1.97-57.36-.94-85.09-.09-4.08.13-13.6,3.95-13.55-2.46.03-3.33,2.68-4.54,5.4-5.69,15.69-6.69,35.53-6.05,52.16-5.84,12.09.15,27.77-.21,39.25,3.83,3.21,1.13,9.82,4.84,7.16,9.08Z"/>
  <path class="st1" d="M369.99,336c-12.6-4.74-25.99-22.42-19.44-35.95,1.21-2.5,9.35-8.96,1.49-11.59-6.74-2.26-9.84.9-10.07-10.01-.22-10.04,12.14-9.92,18.54-5.45,3.6,2.52,10.41,12.52,11.27,16.73,1.21,5.94-.64,11.44-.76,16.78-.22,9.88.26,19.67-1.02,29.49Z"/>
  <path class="st1" d="M538,429c.2,14.18-18.86,10.62-28.54,10.96-6.99.24-17.09,3.3-23.43-1.48-3.09-2.33-4.31-9.47-1.52-9.47h53.5Z"/>
</svg>